<svg xmlns="http://www.w3.org/2000/svg" data-name="Layer 1" viewBox="0 0 261.2 280.7">
  <path
    fill="#898988"
    d="M141.6 252c1.1-2.7 2.3-5.4 3.6-8q3.7-8 7.9-15.9a262.6 262.6 0 0 1 18.9-30.5 167.7 167.7 0 0 1 24.4-27.2l3.5-3 3.7-2.8c19.4-14.5 39.4-54.3 39.4-54.3-17.1 9-40.1 12.6-37.4-9.2 1.8-14.4 8.2-30.1 16.1-44.7h-33c-18 16-35.3 33.4-46.2 49.4-1.7 2.4 24.8-25.2 54-31.4a57.4 57.4 0 0 0-7.5 15.8 44 44 0 0 0-1.6 17.2 45.9 45.9 0 0 0 5.4 16.8 63.1 63.1 0 0 0 11.2 14.6c1.6 1.6 3.4 3.1 5.1 4.6a91.3 91.3 0 0 0-8.9 4.8 108.9 108.9 0 0 0-9.2 6.1l-4.3 3.3-4 3.4a183 183 0 0 0-26.7 29.5 276.3 276.3 0 0 0-19.7 31.3H125a276.3 276.3 0 0 0-19.7-31.3 183 183 0 0 0-26.8-29.6l-4-3.4-4.3-3.2a108.9 108.9 0 0 0-9.2-6.1 91.3 91.3 0 0 0-8.9-4.8c1.8-1.5 3.5-3 5.2-4.6a63.1 63.1 0 0 0 11.2-14.7 45.9 45.9 0 0 0 5.4-16.8 44 44 0 0 0-1.6-17.2 57.4 57.4 0 0 0-7.4-15.8c29.2 6.3 55.7 33.8 54 31.4-10.9-16-28.2-33.4-46.2-49.4h-33C47.6 70.9 54 86.5 55.8 101c3.8 30.8-37.4 9.3-37.4 9.3s19.9 39.8 39.4 54.3l3.7 2.8 3.5 3a167.7 167.7 0 0 1 24.4 27.2 262.6 262.6 0 0 1 18.9 30.5q4.2 7.9 7.9 15.9c1.2 2.7 2.4 5.4 3.6 8l.6 1.4H141z"/>
  <path fill="#898988" d="M67.9 146.8l-9.2 10.8 20.2 2.7-14.2 14.2 21.8 7.2q6.5-2.5 13.6-6c25.5-12.4 65.9-44.6 87.5-34 29.5 14.4-6 26.8-6 26.8s32.8 2.9 35.1-20.2-21.9-57-111.8-20.5c-4.3 1.8-17.8 7.7-32.5 13.6z"/>
  <path
    fill="#555"
    d="M82.8 159.3L63 156.6l13.5-15.9v-1c-14 5.6-28 12.1-37.2 13.7-14.6 2.6-30 2.3-37.4-5.4-.7-2.4 17.9 60.5 93.5 30.8l-26.5-5.7zm23.3 2.2s7-9.6-28.5-21.2c0-.1 15 21.2 28.5 21.2zm49.1 0s-7-9.6 28.4-21.2c0-.1-15 21.2-28.4 21.2zm33.4-105.2h33C238.2 25.8 261.2 0 261.2 0s-37.7 25.5-72.6 56.3zM0 0s23 25.8 39.6 56.3h33C37.8 25.5 0 0 0 0zm130.6 280.7l7.7-20.8c.8-2.1 1.7-4.4 2.6-6.6h-20.7c.9 2.2 1.8 4.5 2.6 6.6z"/>
  <path
    fill="#555"
    d="M130.6 280.6l7.7-20.8c.8-2.1 1.7-4.4 2.6-6.6h-20.7c.9 2.2 1.8 4.5 2.6 6.6zm11-28.8c1.1-2.7 2.3-5.4 3.6-8q3.7-8 7.9-15.9a262.4 262.4 0 0 1 18.9-30.4 167.7 167.7 0 0 1 24.4-27.2l3.5-3 3.7-2.8a103.9 103.9 0 0 1 39.4-18.1s-41.2-14.6-37.4-45.5c1.8-14.4 8.2-30.1 16.1-44.7h-33c-18 16-35.3 33.4-46.2 49.4-1.7 2.4 24.8-25.2 54-31.4A57.4 57.4 0 0 0 189 90a44 44 0 0 0-1.6 17.2 45.9 45.9 0 0 0 5.4 16.8 63.1 63.1 0 0 0 11.2 14.7c1.6 1.6 3.4 3.1 5.1 4.6a91.5 91.5 0 0 0-8.9 4.8 108.9 108.9 0 0 0-9.2 6.1l-4.3 3.3-4 3.4a183.1 183.1 0 0 0-26.7 29.5 276.2 276.2 0 0 0-19.7 31.3H125a276.2 276.2 0 0 0-19.7-31.3 183 183 0 0 0-26.8-29.6l-4-3.4-4.3-3.3A108.8 108.8 0 0 0 61 148a91.5 91.5 0 0 0-8.9-4.8c1.8-1.5 3.5-3 5.2-4.6A63.1 63.1 0 0 0 68.5 124a45.9 45.9 0 0 0 5.4-16.8A44 44 0 0 0 72.3 90a57.4 57.4 0 0 0-7.4-15.8c29.2 6.3 55.7 33.8 54 31.4-10.9-16-28.2-33.4-46.2-49.4h-33c7.9 14.6 14.3 30.2 16.1 44.7 3.8 30.8-37.4 45.5-37.4 45.5a103.9 103.9 0 0 1 39.3 18.1l3.7 2.8 3.5 3a167.7 167.7 0 0 1 24.4 27.2 262.5 262.5 0 0 1 18.9 30.4q4.2 7.9 7.9 15.9c1.2 2.7 2.4 5.4 3.6 8l.6 1.4H141l.6-1.4z"/>
</svg>
