<svg xmlns="http://www.w3.org/2000/svg" viewBox="0 0 242 226.4"><title>fun</title><g style="isolation:isolate"><g id="Layer_1" data-name="Layer 1"><g style="opacity:0.4;mix-blend-mode:multiply"><polygon points="155.5 203.5 197.2 203.5 155.5 161.8 155.5 203.5" style="fill:#231f20"/><polygon points="174.3 203.4 174.2 226.4 197.2 203.5 174.3 203.4" style="fill:#231f20"/><polygon points="155.5 47.7 155.5 134.2 242 47.7 155.5 47.7" style="fill:#231f20"/><polygon points="155.5 1 155.5 87.5 242 1 155.5 1" style="fill:#231f20"/><polygon points="54.3 102.3 155.5 203.5 155.5 1 54.3 102.3" style="fill:#231f20"/><polygon points="54.3 102.3 31.8 18.2 115.8 40.7 54.3 102.3" style="fill:#231f20"/><polygon points="43 60.2 1 49 31.8 18.2 43 60.2" style="fill:#231f20"/></g><polygon points="154.5 202.5 196.2 202.5 154.5 160.8 154.5 202.5" style="fill:#e6e5e5"/><polygon points="173.3 202.4 173.2 225.4 196.2 202.5 173.3 202.4" style="fill:#cccbca"/><polygon points="154.5 46.7 154.5 133.2 241 46.7 154.5 46.7" style="fill:#cccbca"/><polygon points="154.5 0 154.5 86.5 241 0 154.5 0" style="fill:#e6e5e5"/><polygon points="53.3 101.3 154.5 202.5 154.5 0 53.3 101.3" style="fill:#fff"/><polygon points="53.3 101.3 30.8 17.2 114.8 39.7 53.3 101.3" style="fill:#e6e5e5"/><polygon points="42 59.2 0 48 30.8 17.2 42 59.2" style="fill:#cccbca"/></g></g></svg>