<svg id="Layer_1" data-name="Layer 1" xmlns="http://www.w3.org/2000/svg" viewBox="0 0 249.2 169.9">
  <title>leads</title><path d="M45.5,205.1a5.7,5.7,0,1,1-5.7-5.7A5.7,5.7,0,0,1,45.5,205.1Z" transform="translate(-0.2 -40.8)" style="fill:#555555"/><path d="M215.4,205.1a5.7,5.7,0,1,1-5.7-5.7A5.7,5.7,0,0,1,215.4,205.1Z" transform="translate(-0.2 -40.8)" style="fill:#555555"/><rect y="152.9" width="249.2" height="11.34" style="fill:#555555"/><polygon points="222.4 119 26.8 119 0 152.9 249.2 152.9 222.4 119" style="fill:#444444"/><path d="M209.8,170.7A6.1,6.1,0,0,1,208,175a6,6,0,0,1-4.3,1.8H45.8a5.9,5.9,0,0,1-4.2-1.8,6.1,6.1,0,0,1-1.8-4.3V70.2H209.8Z" transform="translate(-0.2 -40.8)" style="fill:#f0efef"/><path d="M209.8,71.4H39.8V46.8a6,6,0,0,1,6-6H203.8a6,6,0,0,1,6,6Z" transform="translate(-0.2 -40.8)" style="fill:#e6e5e5"/><path d="M59.8,56.1a5,5,0,1,1-5-5A5,5,0,0,1,59.8,56.1Z" transform="translate(-0.2 -40.8)" style="fill:#ea6653"/><path d="M74.8,56.1a5,5,0,1,1-5-5A5,5,0,0,1,74.8,56.1Z" transform="translate(-0.2 -40.8)" style="fill:#f5b541"/><path d="M89.8,56.1a5,5,0,1,1-5-5A5,5,0,0,1,89.8,56.1Z" transform="translate(-0.2 -40.8)" style="fill:#a2ad96"/><path d="M150,149.3a35.6,35.6,0,1,1-38.8-58.1l13.6,32.9Z" transform="translate(-0.2 -40.8)" style="fill:#555555"/><path d="M160.4,124.1H124.8V88.5A35.6,35.6,0,0,1,160.4,124.1Z" transform="translate(-0.2 -40.8)" style="fill:#cad7d2"/><path d="M160.4,124.1A35.5,35.5,0,0,1,150,149.3l-25.2-25.2Z" transform="translate(-0.2 -40.8)" style="fill:#e6e5e5"/><path d="M124.8,88.5v35.6L111.2,91.2A35.1,35.1,0,0,1,124.8,88.5Z" transform="translate(-0.2 -40.8)" style="fill:#94aea5"/></svg>
