<svg xmlns="http://www.w3.org/2000/svg" data-name="Layer 1" viewBox="0 0 261.4 280.9">
  <path
    fill="#898988"
    d="M141.6 252.2c1.1-2.7 2.3-5.4 3.6-8q3.7-8 7.9-15.9a262.6 262.6 0 0 1 18.9-30.5 167.7 167.7 0 0 1 24.4-27.2l3.5-3 3.7-2.8c19.4-14.5 39.4-54.3 39.4-54.3-17.1 9-40.1 12.6-37.4-9.2 1.8-14.4 8.2-30.1 16.1-44.7h-33c-18 16-35.3 33.4-46.2 49.4-1.7 2.4 24.8-25.2 54-31.4a57.4 57.4 0 0 0-7.5 15.8 44 44 0 0 0-1.6 17.2 45.9 45.9 0 0 0 5.4 16.8A63.1 63.1 0 0 0 204 139c1.6 1.6 3.4 3.1 5.1 4.6a91.3 91.3 0 0 0-8.9 4.8 108.9 108.9 0 0 0-9.2 6.1l-4.3 3.3-4 3.4a183 183 0 0 0-26.7 29.5 276.3 276.3 0 0 0-19.7 31.3H125a276.3 276.3 0 0 0-19.7-31.3 183 183 0 0 0-26.8-29.6l-4-3.4-4.3-3.2a108.9 108.9 0 0 0-9.2-6.1 91.3 91.3 0 0 0-8.9-4.8l5.2-4.6a63.1 63.1 0 0 0 11.2-14.7 45.9 45.9 0 0 0 5.4-16.8 44 44 0 0 0-1.6-17.2 57.4 57.4 0 0 0-7.4-15.8c29.2 6.3 55.7 33.8 54 31.4-10.9-16-28.2-33.4-46.2-49.4h-33c7.9 14.6 14.3 30.2 16.1 44.7 3.8 30.8-37.4 9.3-37.4 9.3s19.9 39.8 39.4 54.3l3.7 2.8 3.5 3a167.7 167.7 0 0 1 24.4 27.2 262.6 262.6 0 0 1 18.9 30.5q4.2 7.9 7.9 15.9l3.6 8 .6 1.4H141z"/>
  <path fill="#898988" d="M67.9 147l-9.2 10.8 20.2 2.7-14.2 14.2 21.8 7.2q6.5-2.5 13.6-6c25.5-12.4 65.9-44.6 87.5-34 29.5 14.4-6 26.8-6 26.8s32.8 2.9 35.1-20.2-21.9-57-111.8-20.5c-4.3 1.8-17.8 7.7-32.5 13.6z"/>
  <path
    fill="#555555"
    d="M82.9 159.5l-19.8-2.7 13.5-15.9v-1c-14 5.6-28 12.1-37.2 13.7-14.6 2.6-30 2.3-37.4-5.4-.7-2.4 17.9 60.5 93.5 30.8L69 173.3zm23.3 2.2s7-9.6-28.5-21.2c0-.1 15 21.2 28.5 21.2zm49.1 0s-7-9.6 28.4-21.2c0-.1-15 21.2-28.4 21.2zm-24.6 119.2l7.7-20.8 2.6-6.6h-20.7l2.6 6.6z"/>
  <g fill="#555555" data-name="&lt;Group&gt;">
    <path d="M261.4 0c-.7.8-23.4 26.4-39.8 56.6h-33.2C223 26.1 260.3.7 261.4 0z"/>
    <path
      d="M72.7 56.4c18 16 35.3 33.4 46.2 49.4 1.7 2.4-24.8-25.1-54-31.4a57.5 57.5 0 0 1 7.4 15.8 44.1 44.1 0 0 1 1.6 17.2 46 46 0 0 1-5.4 16.8 62.9 62.9 0 0 1-11.2 14.6l-5.2 4.6a91.9 91.9 0 0 1 8.9 4.8 108.6 108.6 0 0 1 9.2 6.1l4.3 3.3 4 3.4a183.2 183.2 0 0 1 26.8 29.6 276 276 0 0 1 19.7 31.3h11.3a276 276 0 0 1 19.7-31.3 182.8 182.8 0 0 1 26.7-29.5l4-3.4 4.3-3.3a108.6 108.6 0 0 1 9.2-6.1 91.9 91.9 0 0 1 8.9-4.8c-1.7-1.5-3.5-3-5.1-4.6a63.2 63.2 0 0 1-11.2-14.7 46 46 0 0 1-5.4-16.8 44.1 44.1 0 0 1 1.6-17.2 57.5 57.5 0 0 1 7.5-15.8c-29.2 6.2-55.7 33.8-54 31.4 10.9-16 28.2-33.4 46.2-49.4h33c-7.9 14.6-14.3 30.3-16.1 44.7-3.8 30.9 37.4 45.5 37.4 45.5a103.9 103.9 0 0 0-39.4 18.1l-3.7 2.8-3.5 3a167.7 167.7 0 0 0-24.4 27.2 263 263 0 0 0-18.9 30.4q-4.2 7.9-7.9 15.9c-1.3 2.6-2.5 5.3-3.6 8l-.6 1.4h-20.7l-.6-1.4-3.6-8q-3.7-8-7.9-15.9a263 263 0 0 0-18.9-30.4 167.7 167.7 0 0 0-24.4-27.2l-3.5-3-3.7-2.8a103.9 103.9 0 0 0-39.3-18.1s41.2-14.7 37.4-45.5C54 86.6 47.6 71 39.7 56.4h33z"/>
    <path d="M120.4 253.3H141l-2.6 6.6-7.7 20.9-7.8-20.9-2.6-6.6zM0 .2C1.1.9 39.6 27 75.1 58.5H40.9C24 27.4.7 1 0 .2z"/>
  </g>
</svg>
