<svg id="Layer_1" data-name="Layer 1" xmlns="http://www.w3.org/2000/svg" viewBox="0 0 242.8 242.8">
  <title>networking</title><path d="M125,246.4A121.4,121.4,0,1,1,246.4,125,121.6,121.6,0,0,1,125,246.4Zm0-233.2A111.8,111.8,0,1,0,236.8,125,111.9,111.9,0,0,0,125,13.2Z" transform="translate(-3.6 -3.6)" style="fill:#555555"/><path
    d="M125,246.4c-35.4,0-63.1-53.3-63.1-121.4S89.6,3.6,125,3.6,188.1,56.9,188.1,125,160.4,246.4,125,246.4Zm0-233.2C96,13.2,71.5,64.4,71.5,125S96,236.8,125,236.8s53.5-51.2,53.5-111.8S154,13.2,125,13.2Z"
    transform="translate(-3.6 -3.6)"
    style="fill:#555555"/><rect x="116.6" y="4.8" width="9.6" height="233.22" style="fill:#555555"/><rect x="4.8" y="116.6" width="233.2" height="9.6" style="fill:#555555"/><rect x="20.4" y="58.3" width="202" height="9.61" style="fill:#555555"/><rect x="20.4" y="174.9" width="202" height="9.6" style="fill:#555555"/><path d="M66.7,150.8A25.8,25.8,0,1,1,92.5,125,25.8,25.8,0,0,1,66.7,150.8Zm0-42A16.2,16.2,0,1,0,82.9,125,16.2,16.2,0,0,0,66.7,108.8Z" transform="translate(-3.6 -3.6)" style="fill:#555555"/><path d="M175.5,92.5a25.8,25.8,0,1,1,25.8-25.8A25.8,25.8,0,0,1,175.5,92.5Zm0-42a16.2,16.2,0,1,0,16.2,16.2A16.2,16.2,0,0,0,175.5,50.5Z" transform="translate(-3.6 -3.6)" style="fill:#555555"/><path d="M175.5,209.1a25.8,25.8,0,1,1,25.8-25.8A25.8,25.8,0,0,1,175.5,209.1Zm0-42a16.2,16.2,0,1,0,16.2,16.2A16.2,16.2,0,0,0,175.5,167.1Z" transform="translate(-3.6 -3.6)" style="fill:#555555"/><path d="M87.5,124.5a21,21,0,1,1-21-21A21,21,0,0,1,87.5,124.5Z" transform="translate(-3.6 -3.6)" style="fill:#94aea5"/><path d="M196.5,66a21,21,0,1,1-21-21A21,21,0,0,1,196.5,66Z" transform="translate(-3.6 -3.6)" style="fill:#fff"/><path d="M196.5,182.9a21,21,0,1,1-21-21A21,21,0,0,1,196.5,182.9Z" transform="translate(-3.6 -3.6)" style="fill:#fff"/></svg>
